<?xml version="1.0" standalone="no"?>
<!DOCTYPE svg PUBLIC "-//W3C//DTD SVG 20010904//EN"
 "http://www.w3.org/TR/2001/REC-SVG-20010904/DTD/svg10.dtd">
<svg version="1.0" xmlns="http://www.w3.org/2000/svg"
 width="156.000000pt" height="156.000000pt" viewBox="0 0 156.000000 156.000000"
 preserveAspectRatio="xMidYMid meet">
<metadata>
Created by potrace 1.11, written by Peter Selinger 2001-2013
</metadata>
<g transform="translate(0.000000,156.000000) scale(0.100000,-0.100000)"
fill="#000000" stroke="none">
<path d="M644 1476 c-109 -34 -373 -266 -427 -375 -50 -101 -30 -162 61 -189
53 -16 250 -14 342 3 41 8 113 20 160 26 108 14 169 40 218 93 56 61 76 120
70 206 -4 54 -12 81 -34 118 -32 51 -104 106 -162 122 -51 14 -178 11 -228 -4z"/>
<path d="M1248 1075 c-50 -17 -102 -59 -157 -129 -50 -63 -131 -190 -131 -205
0 -4 -14 -39 -31 -77 -58 -126 -49 -231 26 -330 38 -50 122 -87 198 -86 111 0
191 53 250 167 28 56 31 68 35 196 5 151 -5 233 -44 350 -35 107 -75 139 -146
114z"/>
<path d="M265 768 c-39 -14 -99 -58 -125 -91 -84 -107 -67 -267 41 -375 108
-109 381 -232 516 -232 115 0 134 118 50 315 -66 158 -179 312 -264 361 -35
21 -61 28 -117 30 -39 2 -84 -1 -101 -8z"/>
</g>
</svg>
